HIERARCHY
ROOT Hips
{
  OFFSET 22.7332 89.9309 -138.891
  CHANNELS 6 Xposition Yposition Zposition Zrotation Xrotation Yrotation
  JOINT RightUpLeg
  {
    OFFSET -8.9458 -8.66707 0.101652
    CHANNELS 3 Zrotation Xrotation Yrotation
    JOINT RightLeg
    {
      OFFSET 0 -44.4227 1.3727
      CHANNELS 3 Zrotation Xrotation Yrotation
      JOINT RightFoot
      {
        OFFSET 0.253549 -42.0924 -1.46059
        CHANNELS 3 Zrotation Xrotation Yrotation
        JOINT RightToes
        {
          OFFSET 0.04 -4.41509 8.4991
          CHANNELS 3 Zrotation Xrotation Yrotation
          End Site
          {
            OFFSET -0.08 -0.137448 9.77979
          }
        }
      }
    }
  }
  JOINT Spine
  {
    OFFSET 0 11.8905 0
    CHANNELS 3 Zrotation Xrotation Yrotation
    JOINT Spine1
    {
      OFFSET 0 25.6574 0.127663
      CHANNELS 3 Zrotation Xrotation Yrotation
      JOINT HEad
      {
        OFFSET 0 8.73416 0.011341
        CHANNELS 3 Zrotation Xrotation Yrotation
        End Site
        {
          OFFSET -0.29 12.7742 2.51395
        }
      }
      JOINT LeftShoulder1
      {
        OFFSET 8.99 -0.362252 -0.22
        CHANNELS 3 Zrotation Xrotation Yrotation
        JOINT LeftArm
        {
          OFFSET 10.2827 -0.00338 0.322123
          CHANNELS 3 Zrotation Xrotation Yrotation
          JOINT LeftForeArm
          {
            OFFSET 32.7669 0.099144 -1.42434
            CHANNELS 3 Zrotation Xrotation Yrotation
            JOINT LeftHand
            {
              OFFSET 27.5643 0.085362 1.02216
              CHANNELS 3 Zrotation Xrotation Yrotation
              End Site
              {
                OFFSET 16.7443 -0.6 1.50291
              }
            }
          }
        }
      }
      JOINT RightShoulder
      {
        OFFSET -8.99 -0.362252 -0.22
        CHANNELS 3 Zrotation Xrotation Yrotation
        JOINT RightArm
        {
          OFFSET -10.2827 -0.00338 0.322123
          CHANNELS 3 Zrotation Xrotation Yrotation
          JOINT RightForeArm
          {
            OFFSET -32.8971 0.099144 -1.42434
            CHANNELS 3 Zrotation Xrotation Yrotation
            JOINT RightHand
            {
              OFFSET -27.4921 0.085362 1.02216
              CHANNELS 3 Zrotation Xrotation Yrotation
              End Site
              {
                OFFSET -16.6312 -0.6 1.50291
              }
            }
          }
        }
      }
    }
  }
  JOINT LeftUpLeg
  {
    OFFSET 8.9458 -8.66707 0.101652
    CHANNELS 3 Zrotation Xrotation Yrotation
    JOINT LeftLeg
    {
      OFFSET 0 -44.4227 1.3727
      CHANNELS 3 Zrotation Xrotation Yrotation
      JOINT LeftFoot
      {
        OFFSET -0.253549 -42.0924 -1.46059
        CHANNELS 3 Zrotation Xrotation Yrotation
        JOINT LeftToes
        {
          OFFSET -0.04 -4.41509 8.4991
          CHANNELS 3 Zrotation Xrotation Yrotation
          End Site
          {
            OFFSET 0.08 -0.047448 9.77979
          }
        }
      }
    }
  }
}
MOTION
Frames:	12
Frame Time:	0.0166667
14.7197 60.4969 -199.44 -5.90539 -2.34928 -36.1693 -49.2018 -53.6901 -40.7735 -173.496 79.1709 -179.51 33.5125 16.2296 -2.75269 0.0462048 0.000533403 0.662642 -6.16569 31.9983 1.86447 -0.00377097 -0.00336704 0.00568001 -9.25257 -6.33275 37.5759 -0 -3.18055e-015 -0 129.732 -43.2828 159.969 -120.675 50.901 -25.6095 7.7693 25.7739 -5.49422 8.40969 1.25629 13.9542 82.3547 -20.6853 75.4875 54.198 59.4105 71.5819 -7.1931 19.4842 2.60012 12.6375 -70.9721 8.94906 78.1201 54.737 -55.8468 -14.0862 26.5835 -1.6707 3.35779e-009 1.56031e-007 -4.88727e-009 
14.4401 61.0435 -199.088 -6.05154 -2.43936 -36.8983 -46.0365 -51.3857 -38.1906 -155.485 82.0332 161.62 39.7663 15.6113 -2.2635 0.0462048 0.000533403 0.662642 -6.22115 32.328 1.93844 -0.00377097 -0.00336704 0.00568001 -9.35265 -6.4944 37.7975 0 0 -3.18055e-015 130.414 -43.8305 160.33 -118.836 51.1108 -27.2604 7.39815 25.4855 -5.4824 7.90444 1.26861 14.4545 82.9943 -20.382 76.1807 54.4896 58.67 70.969 -6.91415 19.7602 2.97903 13.7961 -69.2468 7.23442 74.304 58.7122 -52.5638 -12.1561 24.5446 -1.48393 3.35778e-009 1.56031e-007 -4.88727e-009 
14.2713 62.1417 -198.28 -6.04601 -2.45791 -37.4952 -42.4408 -48.5953 -34.247 -125.058 84.578 129.969 46.5127 14.8591 -1.83318 0.0462048 0.000533403 0.662642 -6.16744 31.977 2.08812 -0.00377097 -0.00336704 0.00568001 -9.50846 -6.10873 37.8767 -3.18055e-015 3.18055e-015 -0 131.522 -44.6937 160.684 -116.883 51.2457 -28.8165 7.01809 25.2292 -5.37574 7.51182 1.54099 14.8833 83.6458 -20.1182 77.0553 54.7816 57.8413 70.2214 -6.58655 20.0637 3.26788 17.0389 -66.9883 7.28421 67.2249 63.5831 -45.6746 -13.3261 22.626 -0.519118 3.35779e-009 1.56031e-007 -4.88727e-009 
14.1929 63.7659 -196.995 -5.90592 -2.37045 -37.9409 -38.8506 -45.314 -29.4399 -70.7709 84.8847 73.968 53.8052 13.9587 -1.43466 0.0462048 0.000533403 0.662642 -5.96963 31.0202 2.33856 -0.00377097 -0.00336704 0.00568001 -9.71903 -5.24915 37.7589 -1.76556e-031 -3.18055e-015 -3.18055e-015 138.561 -45.5612 164.387 -112.737 50.2084 -28.6724 6.717 25.0025 -5.0684 7.25421 2.0131 15.2084 84.2892 -19.8807 78.0728 54.985 56.9761 69.382 -6.3013 20.2852 3.52488 21.1593 -64.4939 8.69135 55.9233 68.3353 -35.3941 -13.3806 20.617 0.261827 3.35779e-009 1.56031e-007 -4.88727e-009 
14.5432 66.8344 -194.588 -5.62943 -2.1674 -38.2372 -35.2676 -43.4015 -24.9822 -36.214 82.6408 37.6525 34.9428 10.6163 3.36108 0.0462048 0.000533403 0.662642 -5.58268 29.5088 2.69904 -0.00377097 -0.00336704 0.00568001 -10.0402 -3.95431 37.414 -0 -6.36111e-015 -0 148.614 -45.0742 169.21 -108.854 51.6978 -29.9422 6.73221 22.3058 -0.533759 7.5102 2.55834 15.245 87.0897 -17.6724 82.5827 57.6733 55.118 62.8236 -6.19739 20.587 4.01218 24.5266 -61.0499 10.6504 37.0937 71.7344 -18.5307 -11.8602 18.4272 0.91607 3.35779e-009 1.56031e-007 -4.88727e-009 
14.9131 70.0619 -191.877 -5.24561 -1.88474 -38.4143 -31.3847 -40.4385 -19.8831 -17.1266 78.5724 15.5069 16.836 5.53971 5.88151 0.0462048 0.000533403 0.662642 -5.02852 27.5806 3.17358 -0.00377097 -0.00336704 0.00568001 -10.4685 -2.317 36.8818 4.77083e-015 -6.36111e-015 -3.18055e-015 154.738 -45.0576 172.253 -106.822 52.785 -30.3322 6.6581 20.4543 2.35276 7.84383 3.3074 15.1096 88.6299 -16.3418 85.2989 58.9514 54.0829 59.2248 -6.02835 20.5197 3.97297 27.9354 -57.3268 13.3971 12.2168 72.8402 2.8182 -9.23366 16.2658 1.38998 3.35779e-009 1.56031e-007 -4.88728e-009 
15.0913 73.0371 -189.03 -4.79076 -1.55665 -38.5191 -29.6521 -35.5696 -13.8372 -8.25961 72.1976 1.95681 28.445 4.11644 5.49444 0.0462048 0.000533403 0.662642 -4.40399 25.7522 3.66185 -0.00377097 -0.00336704 0.00568001 -10.9636 -0.824342 36.2893 -0 -3.18055e-015 -0 158.45 -45.2181 174.281 -105.827 53.574 -30.3999 6.66662 19.6097 3.51487 8.21611 3.87745 14.9318 89.422 -15.5357 86.8854 59.424 53.625 57.4002 -6.17491 20.466 4.09264 31.2088 -53.4433 16.5718 -6.44367 71.7932 17.4925 -7.68756 14.0278 1.54022 3.35779e-009 1.56031e-007 -4.88727e-009 
15.2161 76.0233 -185.865 -4.31051 -1.2515 -38.5813 -28.5303 -30.1655 -7.86208 -2.90423 66.5716 -7.78406 39.9671 2.27947 6.27614 0.0462048 0.000533403 0.662642 -3.73358 24.0749 4.17495 -0.00377097 -0.00336704 0.00568001 -11.5343 0.551234 35.6822 -4.77083e-015 -3.18055e-015 6.36111e-015 160.501 -45.5868 175.579 -105.487 54.1544 -30.3666 6.55208 18.916 4.24091 8.57825 4.36497 14.6307 89.7716 -14.9879 87.7488 59.4118 53.5667 56.6908 -6.25381 20.2127 3.9422 33.6425 -49.7934 19.0449 -20.7119 69.986 27.7826 -6.55389 11.8959 1.51986 3.35779e-009 1.56031e-007 -4.88727e-009 
15.3033 78.7984 -182.463 -3.83465 -0.989929 -38.6393 -27.9431 -25.0193 -2.81019 -0.0814454 61.3279 -14.5156 50.9773 1.18967 7.13691 0.0462048 0.000533403 0.662642 -3.03104 22.5508 4.72833 -0.00377097 -0.00336704 0.00568001 -12.1829 1.84589 35.1067 1.59028e-015 4.77083e-015 -0 161.334 -46.1454 176.309 -105.611 54.5664 -30.3527 6.57882 18.5556 4.24582 8.87056 4.85209 14.154 89.907 -14.5261 88.1555 59.1178 53.7698 56.6998 -6.49739 19.9928 3.84372 36.1259 -46.0037 20.8621 -32.0616 68.5442 34.5734 -15.6649 9.81441 1.36945 3.35779e-009 1.56031e-007 -4.88727e-009 
15.5353 81.9201 -178.582 -3.3956 -0.794829 -38.7119 -25.718 -22.4678 1.00471 1.17348 59.8888 -18.1367 32.8183 -3.28466 7.52909 0.0462048 0.000533403 0.662642 -2.30647 21.1919 5.31695 -0.00377097 -0.00336704 0.00568001 -12.9041 3.09196 34.603 -1.59028e-015 -3.18055e-015 3.18055e-015 161.22 -46.8541 176.583 -106.096 54.827 -30.3818 6.61352 18.1627 4.25075 9.04546 5.39683 13.4877 89.9907 -14.0654 88.2812 58.6891 54.1369 57.1569 -6.64829 19.7163 3.51174 36.5065 -41.4962 21.3296 -37.2821 65.6099 35.6761 -24.8328 8.23253 1.38961 3.35779e-009 1.56031e-007 -4.88727e-009 
15.6503 84.5508 -174.787 -3.0184 -0.680969 -38.8036 -23.5659 -19.8651 3.95869 4.8034 57.575 -21.8632 11.9758 -6.77935 5.20457 0.0462048 0.000533403 0.662642 -1.57249 20.0067 5.92225 -0.00377097 -0.00336704 0.00568001 -13.6837 4.31261 34.2013 -1.59028e-015 -1.59028e-015 -3.18055e-015 160.353 -47.6649 176.492 -106.861 54.9419 -30.4449 6.7789 17.9129 3.98547 9.0893 6.0253 12.6455 90.1184 -13.5774 88.2373 58.2262 54.5895 57.8735 -6.85988 19.5239 3.15204 36.1362 -37.076 21.2655 -39.2059 62.5174 33.9295 -34.364 7.08814 1.25606 3.35779e-009 1.56031e-007 -4.88727e-009 
15.6481 86.4436 -171.267 -2.71116 -0.736329 -38.9212 -24.7796 -16.2418 6.23505 10.0132 54.3494 -22.3045 36.4288 -4.7745 7.32498 0.0462048 0.000533403 0.662642 -0.900604 19.062 6.52455 -0.00377097 -0.00336704 0.00568001 -14.5139 5.52701 33.9242 8.82781e-032 -1.59028e-015 3.18055e-015 158.794 -48.5194 176.14 -107.832 54.8791 -30.4873 7.17963 17.4468 3.93306 9.02367 6.82422 11.626 90.3588 -13.0596 88.1364 57.7809 55.0437 58.6998 -7.15445 19.3155 2.52364 35.4995 -33.0486 20.9337 -39.6102 59.7829 31.2502 -44.2237 6.22927 0.973123 3.35777e-009 1.56031e-007 -4.88728e-009 
